<?xml version="1.0" standalone="no"?>
<!DOCTYPE svg PUBLIC "-//W3C//DTD SVG 20010904//EN"
 "http://www.w3.org/TR/2001/REC-SVG-20010904/DTD/svg10.dtd">
<svg version="1.0" xmlns="http://www.w3.org/2000/svg"
 width="260.000000pt" height="260.000000pt" viewBox="0 0 260.000000 260.000000"
 preserveAspectRatio="xMidYMid meet">
<metadata>
Created by potrace 1.11, written by Peter Selinger 2001-2013
</metadata>
<g transform="translate(0.000000,260.000000) scale(0.100000,-0.100000)"
fill="#000000" stroke="none">
<path d="M712 2585 c-34 -8 -82 -24 -107 -36 -44 -22 -115 -82 -115 -97 0 -5
-9 -18 -20 -30 -36 -38 -92 -231 -105 -362 -4 -36 -9 -68 -11 -71 -2 -4 -6
-26 -9 -50 -3 -24 -11 -80 -19 -124 -19 -109 -11 -160 35 -218 l30 -37 -27
-10 c-33 -13 -72 -53 -86 -89 -18 -47 -69 -255 -73 -297 -2 -22 -13 -74 -25
-115 -11 -41 -23 -90 -26 -109 -3 -19 -7 -42 -10 -50 -3 -8 -7 -62 -9 -120 -5
-126 12 -218 57 -310 37 -77 31 -68 138 -179 122 -126 228 -191 405 -249 74
-24 96 -26 285 -28 173 -3 219 0 295 16 118 26 195 47 275 75 56 19 68 21 85
9 18 -12 32 -8 120 27 333 134 568 303 646 464 31 64 34 77 33 160 -1 109 -27
211 -89 343 -24 51 -45 96 -45 100 -1 4 -7 14 -13 22 -7 8 -20 30 -30 48 -10
18 -24 43 -31 55 -45 82 -205 325 -231 350 -10 10 -26 16 -36 14 -12 -3 -28
11 -55 50 -21 30 -33 57 -28 62 5 4 34 27 64 51 63 51 70 59 70 81 0 14 -62
101 -101 142 -8 8 -32 38 -54 66 -59 76 -70 77 -160 2 -47 -39 -75 -51 -75
-33 0 9 -176 190 -231 236 -69 60 -221 155 -296 186 -145 61 -299 81 -421 55z
m301 -323 c37 -17 67 -33 67 -36 0 -3 -18 -10 -41 -16 -25 -7 -57 -28 -83 -53
-51 -52 -73 -120 -80 -252 -7 -119 -15 -278 -21 -395 -6 -132 -16 -313 -20
-385 -13 -222 -19 -365 -20 -465 0 -108 2 -119 30 -175 42 -84 85 -115 177
-128 64 -9 81 -8 116 6 48 19 102 64 102 84 0 7 4 13 8 13 10 0 28 51 37 100
7 40 13 127 14 218 l1 62 116 -117 c64 -65 143 -146 176 -179 l60 -62 -46 -20
c-41 -19 -51 -30 -47 -54 2 -13 -31 -25 -154 -61 -146 -42 -176 -47 -335 -52
-242 -9 -383 44 -536 202 -89 91 -99 116 -99 248 1 119 22 230 59 300 11 22
41 87 67 145 41 92 47 112 45 165 -3 65 -20 108 -60 146 -30 28 -32 39 -9 39
31 0 83 45 104 90 20 41 22 63 24 265 3 229 11 287 52 357 24 41 48 48 148 44
63 -3 94 -10 148 -34z m367 -281 c0 -3 14 -20 30 -38 17 -18 30 -34 30 -36 0
-3 -19 -20 -42 -39 l-43 -35 0 82 c0 62 3 81 13 78 6 -3 12 -8 12 -12z m328
-428 c23 -35 28 -51 21 -64 -7 -13 11 -47 79 -151 102 -153 153 -241 209 -353
40 -80 83 -193 83 -218 0 -14 -78 -97 -92 -97 -4 0 -81 75 -171 168 -475 483
-487 496 -475 509 6 8 52 46 102 86 50 39 96 76 102 82 6 5 25 21 43 35 18 14
38 30 44 37 18 19 23 16 55 -34z"/>
</g>
</svg>
